<?xml version="1.0" standalone="no"?>
<!DOCTYPE svg PUBLIC "-//W3C//DTD SVG 20010904//EN"
 "http://www.w3.org/TR/2001/REC-SVG-20010904/DTD/svg10.dtd">
<svg version="1.0" xmlns="http://www.w3.org/2000/svg"
 width="211.000000pt" height="210.000000pt" viewBox="0 0 211.000000 210.000000"
 preserveAspectRatio="xMidYMid meet">
<metadata>
Created by potrace 1.16, written by Peter Selinger 2001-2019
</metadata>
<g transform="translate(0.000000,210.000000) scale(0.100000,-0.100000)"
fill="#000000" stroke="none">
<path d="M40 2050 c-11 -11 -25 -20 -30 -20 -7 0 -10 -334 -10 -982 l0 -983
24 -30 24 -30 997 0 997 0 29 33 29 32 0 923 c0 507 3 946 6 975 5 37 3 52 -5
52 -7 0 -26 10 -42 23 l-31 22 -984 3 c-975 2 -984 2 -1004 -18z m1231 -500
c17 -9 19 -22 19 -105 0 -89 -1 -95 -25 -111 -35 -23 -82 -98 -90 -144 -8 -45
16 -140 40 -160 8 -7 12 -16 9 -21 -10 -17 -38 -9 -70 22 l-32 31 -39 -21
c-41 -20 -133 -114 -133 -135 0 -6 14 -20 30 -31 16 -11 30 -23 30 -27 0 -4
-37 -8 -82 -10 l-82 -3 58 -65 c32 -36 72 -82 88 -102 l30 -38 -34 0 c-29 0
-40 9 -87 70 -30 39 -58 70 -61 70 -4 0 -31 -31 -61 -70 -43 -57 -58 -70 -81
-70 -15 0 -28 4 -28 10 0 5 37 51 82 102 l82 93 -204 3 c-172 2 -207 5 -222
19 -17 15 -18 41 -18 344 0 284 2 330 16 343 13 14 66 16 430 16 267 0 422 -4
435 -10z m273 -263 c49 -38 76 -94 76 -159 0 -121 -92 -206 -213 -196 -60 5
-102 29 -144 85 -56 74 -37 209 38 266 44 32 60 36 140 34 55 -2 72 -7 103
-30z m-370 -351 c49 -77 62 -82 141 -55 54 18 80 21 157 17 60 -4 104 -11 125
-22 37 -20 96 -97 144 -191 l34 -64 -35 -36 c-45 -47 -64 -45 -100 12 l-30 47
0 -67 c0 -88 -7 -92 -170 -92 -166 0 -170 2 -170 103 l0 77 -83 71 c-66 56
-131 108 -166 131 -2 1 -1 13 3 27 6 23 87 96 107 96 5 0 24 -24 43 -54z"/>
</g>
</svg>
